<svg width="22" height="22" viewBox="0 0 22 22" fill="none" xmlns="http://www.w3.org/2000/svg">
<g id="chat-smile-2-line">
<path id="Vector" d="M6.68361 19.0888L1.83337 20.1667L2.9112 15.3164C2.22336 14.0301 1.83337 12.5606 1.83337 11C1.83337 5.93738 5.93743 1.83333 11 1.83333C16.0626 1.83333 20.1667 5.93738 20.1667 11C20.1667 16.0626 16.0626 20.1667 11 20.1667C9.43942 20.1667 7.96991 19.7767 6.68361 19.0888ZM6.94906 17.1517L7.54813 17.4721C8.60065 18.035 9.77675 18.3333 11 18.3333C15.0501 18.3333 18.3334 15.0501 18.3334 11C18.3334 6.9499 15.0501 3.66666 11 3.66666C6.94995 3.66666 3.66671 6.9499 3.66671 11C3.66671 12.2233 3.96507 13.3994 4.52791 14.4519L4.84825 15.0509L4.24802 17.752L6.94906 17.1517ZM6.41671 11H8.25004C8.25004 12.5188 9.48122 13.75 11 13.75C12.5189 13.75 13.75 12.5188 13.75 11H15.5834C15.5834 13.5313 13.5313 15.5833 11 15.5833C8.46874 15.5833 6.41671 13.5313 6.41671 11Z" fill="#A8B4BC"/>
</g>
</svg>
