<svg width="22" height="22" viewBox="0 0 22 22" fill="none" xmlns="http://www.w3.org/2000/svg">
<g id="contacts-line">
<path id="Vector" d="M17.4167 6.41666H22V8.24999H17.4167V6.41666ZM15.5834 11H22V12.8333H15.5834V11ZM18.3334 15.5833H22V17.4167H18.3334V15.5833ZM1.83337 20.1667C1.83337 16.1165 5.11662 12.8333 9.16671 12.8333C13.2168 12.8333 16.5 16.1165 16.5 20.1667H14.6667C14.6667 17.1291 12.2043 14.6667 9.16671 14.6667C6.12914 14.6667 3.66671 17.1291 3.66671 20.1667H1.83337ZM9.16671 11.9167C6.12796 11.9167 3.66671 9.45541 3.66671 6.41666C3.66671 3.37791 6.12796 0.916656 9.16671 0.916656C12.2055 0.916656 14.6667 3.37791 14.6667 6.41666C14.6667 9.45541 12.2055 11.9167 9.16671 11.9167ZM9.16671 10.0833C11.1925 10.0833 12.8334 8.44249 12.8334 6.41666C12.8334 4.39082 11.1925 2.74999 9.16671 2.74999C7.14087 2.74999 5.50004 4.39082 5.50004 6.41666C5.50004 8.44249 7.14087 10.0833 9.16671 10.0833Z" fill="#A8B4BC"/>
</g>
</svg>
