<svg width="22" height="22" viewBox="0 0 22 22" fill="none" xmlns="http://www.w3.org/2000/svg">
<g id="customer-service-2-fill">
<path id="Vector" d="M18.5 7.66666C19.4205 7.66666 20.1667 8.41285 20.1667 9.33333V12.6667C20.1667 13.5872 19.4205 14.3333 18.5 14.3333H17.6151C17.205 17.6219 14.3997 20.1667 11 20.1667V18.5C13.7615 18.5 16 16.2614 16 13.5V8.49999C16 5.73857 13.7615 3.49999 11 3.49999C8.23862 3.49999 6.00004 5.73857 6.00004 8.49999V14.3333H3.50004C2.57957 14.3333 1.83337 13.5872 1.83337 12.6667V9.33333C1.83337 8.41285 2.57957 7.66666 3.50004 7.66666H4.38495C4.79503 4.37807 7.60036 1.83333 11 1.83333C14.3997 1.83333 17.205 4.37807 17.6151 7.66666H18.5ZM7.46624 14.1541L8.34969 12.7406C9.11805 13.2218 10.0265 13.5 11 13.5C11.9735 13.5 12.882 13.2218 13.6504 12.7406L14.5339 14.1541C13.5094 14.7957 12.298 15.1667 11 15.1667C9.70204 15.1667 8.49072 14.7957 7.46624 14.1541Z" fill="#A8B4BC"/>
</g>
</svg>
