<svg width="22" height="22" viewBox="0 0 22 22" fill="none" xmlns="http://www.w3.org/2000/svg">
<g id="questionnaire-line">
<path id="Vector" d="M5.28263 15.5833H18.3334V4.58333H3.66671V16.853L5.28263 15.5833ZM5.91671 17.4167L1.83337 20.625V3.66667C1.83337 3.16041 2.24378 2.75 2.75004 2.75H19.25C19.7563 2.75 20.1667 3.16041 20.1667 3.66667V16.5C20.1667 17.0063 19.7563 17.4167 19.25 17.4167H5.91671ZM10.0834 12.8333H11.9167V14.6667H10.0834V12.8333ZM7.85341 8.07901C8.14588 6.60842 9.44354 5.5 11 5.5C12.772 5.5 14.2084 6.93642 14.2084 8.70833C14.2084 10.4803 12.772 11.9167 11 11.9167H10.0834V10.0833H11C11.7594 10.0833 12.375 9.4677 12.375 8.70833C12.375 7.94894 11.7594 7.33333 11 7.33333C10.333 7.33333 9.77684 7.80838 9.65144 8.43862L7.85341 8.07901Z" fill="#A8B4BC"/>
</g>
</svg>
